<svg width="48" height="48" viewBox="0 0 48 48" fill="none" xmlns="http://www.w3.org/2000/svg">
<rect width="48" height="48" fill="#323238"/>
<path d="M29 14H19C16.2386 14 14 16.2386 14 19V29C14 31.7614 16.2386 34 19 34H29C31.7614 34 34 31.7614 34 29V19C34 16.2386 31.7614 14 29 14Z" stroke="#E1E1E6" stroke-width="2" stroke-linecap="round" stroke-linejoin="round"/>
<path d="M28 23.37C28.1234 24.2022 27.9812 25.0522 27.5937 25.799C27.2062 26.5458 26.5931 27.1514 25.8416 27.5297C25.0901 27.9079 24.2384 28.0396 23.4077 27.9059C22.5771 27.7723 21.8097 27.3801 21.2148 26.7852C20.6199 26.1902 20.2277 25.4229 20.094 24.5922C19.9604 23.7615 20.092 22.9099 20.4703 22.1584C20.8485 21.4069 21.4541 20.7937 22.2009 20.4062C22.9477 20.0187 23.7977 19.8766 24.63 20C25.4789 20.1259 26.2648 20.5215 26.8716 21.1283C27.4785 21.7351 27.8741 22.5211 28 23.37Z" stroke="#E1E1E6" stroke-width="2" stroke-linecap="round" stroke-linejoin="round"/>
<path d="M29.5 18.5H29.51" stroke="#E1E1E6" stroke-width="2" stroke-linecap="round" stroke-linejoin="round"/>
</svg>
